# Blender v2.81 (sub 16) OBJ File: 'Scene.blend'
# www.blender.org
mtllib staff.mtl
o Cylinder.002
v 0.036261 1.218810 0.153093
v 0.031621 1.220140 0.151050
v 0.026559 1.221470 0.150776
v 0.021684 1.222639 0.152306
v 0.017585 1.223507 0.155455
v 0.014756 1.223969 0.159844
v 0.013539 1.223969 0.164942
v 0.014079 1.223507 0.170135
v 0.016313 1.222639 0.174796
v 0.019970 1.221470 0.178364
v 0.024610 1.220140 0.180408
v 0.029673 1.218810 0.180681
v 0.034547 1.217641 0.179151
v 0.038646 1.216773 0.176002
v 0.041475 1.216311 0.171614
v 0.042693 1.216311 0.166516
v 0.042152 1.216773 0.161322
v 0.039918 1.217641 0.156661
v -0.138890 0.562581 0.110328
v -0.134250 0.561251 0.112372
v -0.130593 0.560082 0.115939
v -0.128359 0.559214 0.120601
v -0.127819 0.558752 0.125794
v -0.129036 0.558752 0.130893
v -0.131865 0.559214 0.135280
v -0.135964 0.560082 0.138430
v -0.140839 0.561251 0.139960
v -0.145901 0.562581 0.139687
v -0.150541 0.563911 0.137642
v -0.154198 0.565080 0.134075
v -0.156432 0.565948 0.129413
v -0.156973 0.566410 0.124221
v -0.155755 0.566410 0.119122
v -0.152926 0.565948 0.114734
v -0.148827 0.565080 0.111584
v -0.143953 0.563911 0.110054
v 0.014570 1.154384 0.146978
v 0.019210 1.153054 0.149021
v 0.022867 1.151885 0.152589
v 0.025101 1.151017 0.157250
v 0.025642 1.150555 0.162444
v 0.024424 1.150555 0.167542
v 0.021595 1.151017 0.171930
v 0.017496 1.151885 0.175079
v 0.012622 1.153054 0.176609
v 0.007559 1.154384 0.176336
v 0.002919 1.155713 0.174292
v -0.000738 1.156883 0.170724
v -0.002972 1.157751 0.166063
v -0.003513 1.158212 0.160870
v -0.002295 1.158212 0.155772
v 0.000534 1.157751 0.151383
v 0.004633 1.156883 0.148234
v 0.009508 1.155713 0.146704
v -0.126901 0.629667 0.114127
v -0.121839 0.628337 0.114400
v -0.109850 0.695422 0.118199
v -0.104788 0.694092 0.118473
v -0.092799 0.761178 0.122271
v -0.087737 0.759849 0.122545
v -0.075748 0.826934 0.126343
v -0.070685 0.825605 0.126617
v -0.058697 0.892690 0.130415
v -0.053634 0.891360 0.130689
v -0.041646 0.958446 0.134487
v -0.036583 0.957116 0.134761
v -0.024595 1.024202 0.138560
v -0.019532 1.022872 0.138833
v -0.007543 1.089958 0.142632
v -0.002481 1.088629 0.142906
v -0.131776 0.630836 0.115657
v -0.114725 0.696591 0.119729
v -0.097674 0.762347 0.123801
v -0.080622 0.828104 0.127873
v -0.063571 0.893859 0.131945
v -0.046520 0.959615 0.136017
v -0.029469 1.025371 0.140090
v -0.012418 1.091127 0.144162
v -0.135875 0.631704 0.118806
v -0.118824 0.697459 0.122878
v -0.101773 0.763215 0.126950
v -0.084722 0.828972 0.131022
v -0.067671 0.894727 0.135094
v -0.050620 0.960483 0.139167
v -0.033568 1.026239 0.143239
v -0.016517 1.091995 0.147311
v -0.138704 0.632166 0.123194
v -0.121653 0.697921 0.127267
v -0.104602 0.763677 0.131339
v -0.087551 0.829433 0.135411
v -0.070500 0.895189 0.139483
v -0.053448 0.960945 0.143555
v -0.036397 1.026701 0.147627
v -0.019346 1.092457 0.151700
v -0.139922 0.632166 0.128293
v -0.122871 0.697921 0.132365
v -0.105819 0.763677 0.136437
v -0.088768 0.829433 0.140509
v -0.071717 0.895189 0.144582
v -0.054666 0.960945 0.148654
v -0.037615 1.026701 0.152726
v -0.020564 1.092457 0.156798
v -0.139381 0.631704 0.133485
v -0.122330 0.697459 0.137558
v -0.105279 0.763215 0.141630
v -0.088227 0.828972 0.145702
v -0.071177 0.894727 0.149774
v -0.054125 0.960483 0.153846
v -0.037074 1.026239 0.157918
v -0.020023 1.091995 0.161991
v -0.137147 0.630836 0.138147
v -0.120096 0.696591 0.142219
v -0.103045 0.762347 0.146291
v -0.085994 0.828104 0.150364
v -0.068943 0.893859 0.154436
v -0.051891 0.959615 0.158508
v -0.034840 1.025371 0.162580
v -0.017789 1.091127 0.166652
v -0.133490 0.629667 0.141715
v -0.116439 0.695422 0.145787
v -0.099388 0.761178 0.149859
v -0.082337 0.826934 0.153931
v -0.065286 0.892690 0.158003
v -0.048234 0.958446 0.162075
v -0.031183 1.024202 0.166148
v -0.014132 1.089958 0.170220
v -0.128850 0.628337 0.143759
v -0.111799 0.694092 0.147831
v -0.094748 0.759849 0.151903
v -0.077697 0.825605 0.155975
v -0.060646 0.891360 0.160047
v -0.043595 0.957116 0.164120
v -0.026543 1.022872 0.168192
v -0.009492 1.088629 0.172264
v -0.123787 0.627007 0.144032
v -0.106736 0.692763 0.148104
v -0.089685 0.758519 0.152176
v -0.072634 0.824275 0.156248
v -0.055583 0.890030 0.160320
v -0.038532 0.955786 0.164393
v -0.021481 1.021543 0.168465
v -0.004429 1.087299 0.172537
v -0.118913 0.625838 0.142502
v -0.101862 0.691593 0.146574
v -0.084811 0.757350 0.150646
v -0.067760 0.823106 0.154718
v -0.050709 0.888861 0.158790
v -0.033657 0.954617 0.162862
v -0.016606 1.020373 0.166935
v 0.000445 1.086130 0.171007
v -0.114814 0.624970 0.139353
v -0.097763 0.690725 0.143425
v -0.080712 0.756482 0.147497
v -0.063660 0.822238 0.151569
v -0.046609 0.887993 0.155641
v -0.029558 0.953749 0.159713
v -0.012507 1.019505 0.163786
v 0.004544 1.085262 0.167858
v -0.111985 0.624508 0.134965
v -0.094934 0.690264 0.139037
v -0.077883 0.756020 0.143109
v -0.060832 0.821776 0.147181
v -0.043781 0.887531 0.151253
v -0.026729 0.953287 0.155326
v -0.009678 1.019044 0.159398
v 0.007373 1.084800 0.163470
v -0.110767 0.624508 0.129866
v -0.093716 0.690264 0.133938
v -0.076665 0.756020 0.138011
v -0.059614 0.821776 0.142083
v -0.042563 0.887531 0.146155
v -0.025512 0.953287 0.150227
v -0.008461 1.019044 0.154299
v 0.008591 1.084800 0.158371
v -0.111308 0.624970 0.124673
v -0.094257 0.690725 0.128745
v -0.077206 0.756482 0.132817
v -0.060155 0.822238 0.136889
v -0.043104 0.887993 0.140962
v -0.026052 0.953749 0.145034
v -0.009001 1.019505 0.149106
v 0.008050 1.085262 0.153178
v -0.113542 0.625838 0.120011
v -0.096491 0.691593 0.124083
v -0.079440 0.757350 0.128156
v -0.062388 0.823106 0.132228
v -0.045337 0.888861 0.136300
v -0.028286 0.954617 0.140372
v -0.011235 1.020373 0.144444
v 0.005816 1.086130 0.148516
v -0.117199 0.627007 0.116444
v -0.100148 0.692763 0.120516
v -0.083097 0.758519 0.124588
v -0.066045 0.824275 0.128660
v -0.048994 0.890030 0.132732
v -0.031943 0.955786 0.136805
v -0.014892 1.021543 0.140877
v 0.002159 1.087299 0.144949
vt 0.332085 0.475526
vt 0.250000 0.490000
vt 0.167915 0.475526
vt 0.095731 0.433851
vt 0.042154 0.370000
vt 0.013646 0.291675
vt 0.013646 0.208324
vt 0.042154 0.130000
vt 0.095731 0.066149
vt 0.167915 0.024474
vt 0.250000 0.010000
vt 0.332085 0.024474
vt 0.404269 0.066149
vt 0.457846 0.130000
vt 0.486354 0.208324
vt 0.486354 0.291676
vt 0.457846 0.370000
vt 0.404269 0.433851
vt 0.750000 0.490000
vt 0.832085 0.475526
vt 0.904269 0.433851
vt 0.957846 0.370000
vt 0.986354 0.291676
vt 0.986354 0.208324
vt 0.957846 0.130000
vt 0.904269 0.066149
vt 0.832085 0.024474
vt 0.750000 0.010000
vt 0.667915 0.024474
vt 0.595731 0.066149
vt 0.542154 0.130000
vt 0.513646 0.208324
vt 0.513646 0.291675
vt 0.542154 0.370000
vt 0.595731 0.433851
vt 0.667915 0.475526
vt 1.000000 0.950000
vt 1.000000 1.000000
vt 0.944444 1.000000
vt 0.944444 0.950000
vt 0.888889 1.000000
vt 0.888889 0.950000
vt 0.833333 1.000000
vt 0.833333 0.950000
vt 0.777778 1.000000
vt 0.777778 0.950000
vt 0.722222 1.000000
vt 0.722222 0.950000
vt 0.666667 1.000000
vt 0.666667 0.950000
vt 0.611111 1.000000
vt 0.611111 0.950000
vt 0.555555 1.000000
vt 0.555555 0.950000
vt 0.500000 1.000000
vt 0.500000 0.950000
vt 0.444444 1.000000
vt 0.444444 0.950000
vt 0.388889 1.000000
vt 0.388889 0.950000
vt 0.333333 1.000000
vt 0.333333 0.950000
vt 0.277778 1.000000
vt 0.277778 0.950000
vt 0.222222 1.000000
vt 0.222222 0.950000
vt 0.166666 1.000000
vt 0.166666 0.950000
vt 0.111111 1.000000
vt 0.111111 0.950000
vt 0.055555 1.000000
vt 0.055555 0.950000
vt -0.000000 1.000000
vt -0.000000 0.950000
vt 0.055555 0.500000
vt 0.055555 0.550000
vt -0.000000 0.550000
vt -0.000000 0.500000
vt 0.055555 0.600000
vt -0.000000 0.600000
vt 0.055555 0.650000
vt -0.000000 0.650000
vt 0.055555 0.700000
vt -0.000000 0.700000
vt 0.055555 0.750000
vt -0.000000 0.750000
vt 0.055555 0.800000
vt -0.000000 0.800000
vt 0.055555 0.850000
vt -0.000000 0.850000
vt 0.055555 0.900000
vt -0.000000 0.900000
vt 0.111111 0.500000
vt 0.111111 0.550000
vt 0.111111 0.600000
vt 0.111111 0.650000
vt 0.111111 0.700000
vt 0.111111 0.750000
vt 0.111111 0.800000
vt 0.111111 0.850000
vt 0.111111 0.900000
vt 0.166666 0.500000
vt 0.166666 0.550000
vt 0.166666 0.600000
vt 0.166666 0.650000
vt 0.166666 0.700000
vt 0.166666 0.750000
vt 0.166666 0.800000
vt 0.166666 0.850000
vt 0.166666 0.900000
vt 0.222222 0.500000
vt 0.222222 0.550000
vt 0.222222 0.600000
vt 0.222222 0.650000
vt 0.222222 0.700000
vt 0.222222 0.750000
vt 0.222222 0.800000
vt 0.222222 0.850000
vt 0.222222 0.900000
vt 0.277778 0.500000
vt 0.277778 0.550000
vt 0.277778 0.600000
vt 0.277778 0.650000
vt 0.277778 0.700000
vt 0.277778 0.750000
vt 0.277778 0.800000
vt 0.277778 0.850000
vt 0.277778 0.900000
vt 0.333333 0.500000
vt 0.333333 0.550000
vt 0.333333 0.600000
vt 0.333333 0.650000
vt 0.333333 0.700000
vt 0.333333 0.750000
vt 0.333333 0.800000
vt 0.333333 0.850000
vt 0.333333 0.900000
vt 0.388889 0.500000
vt 0.388889 0.550000
vt 0.388889 0.600000
vt 0.388889 0.650000
vt 0.388889 0.700000
vt 0.388889 0.750000
vt 0.388889 0.800000
vt 0.388889 0.850000
vt 0.388889 0.900000
vt 0.444444 0.500000
vt 0.444444 0.550000
vt 0.444444 0.600000
vt 0.444444 0.650000
vt 0.444444 0.700000
vt 0.444444 0.750000
vt 0.444444 0.800000
vt 0.444444 0.850000
vt 0.444444 0.900000
vt 0.500000 0.500000
vt 0.500000 0.550000
vt 0.500000 0.600000
vt 0.500000 0.650000
vt 0.500000 0.700000
vt 0.500000 0.750000
vt 0.500000 0.800000
vt 0.500000 0.850000
vt 0.500000 0.900000
vt 0.555555 0.500000
vt 0.555555 0.550000
vt 0.555555 0.600000
vt 0.555555 0.650000
vt 0.555555 0.700000
vt 0.555555 0.750000
vt 0.555555 0.800000
vt 0.555555 0.850000
vt 0.555555 0.900000
vt 0.611111 0.500000
vt 0.611111 0.550000
vt 0.611111 0.600000
vt 0.611111 0.650000
vt 0.611111 0.700000
vt 0.611111 0.750000
vt 0.611111 0.800000
vt 0.611111 0.850000
vt 0.611111 0.900000
vt 0.666667 0.500000
vt 0.666667 0.550000
vt 0.666667 0.600000
vt 0.666667 0.650000
vt 0.666667 0.700000
vt 0.666667 0.750000
vt 0.666667 0.800000
vt 0.666667 0.850000
vt 0.666667 0.900000
vt 0.722222 0.500000
vt 0.722222 0.550000
vt 0.722222 0.600000
vt 0.722222 0.650000
vt 0.722222 0.700000
vt 0.722222 0.750000
vt 0.722222 0.800000
vt 0.722222 0.850000
vt 0.722222 0.900000
vt 0.777778 0.500000
vt 0.777778 0.550000
vt 0.777778 0.600000
vt 0.777778 0.650000
vt 0.777778 0.700000
vt 0.777778 0.750000
vt 0.777778 0.800000
vt 0.777778 0.850000
vt 0.777778 0.900000
vt 0.833333 0.500000
vt 0.833333 0.550000
vt 0.833333 0.600000
vt 0.833333 0.650000
vt 0.833333 0.700000
vt 0.833333 0.750000
vt 0.833333 0.800000
vt 0.833333 0.850000
vt 0.833333 0.900000
vt 0.888889 0.500000
vt 0.888889 0.550000
vt 0.888889 0.600000
vt 0.888889 0.650000
vt 0.888889 0.700000
vt 0.888889 0.750000
vt 0.888889 0.800000
vt 0.888889 0.850000
vt 0.888889 0.900000
vt 0.944444 0.500000
vt 0.944444 0.550000
vt 0.944444 0.600000
vt 0.944444 0.650000
vt 0.944444 0.700000
vt 0.944445 0.750000
vt 0.944444 0.800000
vt 0.944444 0.850000
vt 0.944444 0.900000
vt 1.000000 0.500000
vt 1.000000 0.550000
vt 1.000000 0.600000
vt 1.000000 0.650000
vt 1.000000 0.700000
vt 1.000000 0.750000
vt 1.000000 0.800000
vt 1.000000 0.850000
vt 1.000000 0.900000
vn 0.2506 0.9662 0.0598
vn -0.2506 -0.9662 -0.0598
vn 0.2323 0.0000 -0.9727
vn 0.3403 0.6474 -0.6819
vn 0.5685 0.5820 -0.5815
vn 0.5397 -0.0881 -0.8373
vn 0.7485 0.5244 -0.4058
vn 0.7820 -0.1656 -0.6008
vn 0.8583 0.4818 -0.1766
vn 0.9302 -0.2231 -0.2915
vn 0.8849 0.4591 0.0790
vn 0.9659 -0.2537 0.0522
vn 0.8250 0.4591 0.3297
vn 0.8852 -0.2537 0.3900
vn 0.6856 0.4818 0.5457
vn 0.6977 -0.2231 0.6807
vn 0.4843 0.5244 0.7003
vn 0.4262 -0.1656 0.8894
vn 0.2442 0.5820 0.7756
vn 0.1032 -0.0881 0.9908
vn -0.0044 0.6474 0.7622
vn -0.2323 -0.0000 0.9727
vn -0.2327 0.7128 0.6617
vn -0.5397 0.0881 0.8372
vn -0.4127 0.7703 0.4861
vn -0.7820 0.1656 0.6008
vn -0.5226 0.8130 0.2566
vn -0.9300 0.2231 0.2920
vn -0.5491 0.8357 0.0016
vn -0.9659 0.2537 -0.0522
vn -0.4892 0.8358 -0.2494
vn -0.8852 0.2537 -0.3899
vn -0.3501 0.8130 -0.4652
vn -0.6978 0.2231 -0.6807
vn -0.1483 0.7703 -0.6202
vn -0.4261 0.1656 -0.8894
vn 0.0917 0.7127 -0.6955
vn -0.1031 0.0881 -0.9908
vn -0.2446 -0.5819 -0.7756
vn 0.2323 0.0000 -0.9726
vn 0.0045 -0.6474 -0.7621
vn -0.4844 -0.5244 -0.7003
vn -0.4262 0.1656 -0.8894
vn -0.6857 -0.4818 -0.5456
vn -0.8250 -0.4591 -0.3296
vn -0.8852 0.2537 -0.3900
vn -0.8849 -0.4591 -0.0788
vn -0.9659 0.2537 -0.0521
vn -0.8583 -0.4817 0.1766
vn -0.9301 0.2231 0.2919
vn -0.9300 0.2231 0.2922
vn -0.7486 -0.5244 0.4058
vn -0.5684 -0.5821 0.5815
vn -0.5398 0.0881 0.8372
vn -0.3404 -0.6474 0.6819
vn -0.2323 -0.0000 0.9726
vn -0.0913 -0.7128 0.6954
vn 0.1032 -0.0881 0.9907
vn 0.1486 -0.7703 0.6201
vn 0.4261 -0.1656 0.8894
vn 0.3501 -0.8130 0.4653
vn 0.6978 -0.2231 0.6807
vn 0.4894 -0.8358 0.2490
vn 0.8852 -0.2537 0.3899
vn 0.5491 -0.8358 -0.0015
vn 0.9659 -0.2537 0.0521
vn 0.5225 -0.8130 -0.2570
vn 0.9300 -0.2231 -0.2920
vn 0.9301 -0.2231 -0.2919
vn 0.4127 -0.7702 -0.4862
vn 0.7820 -0.1656 -0.6009
vn 0.7821 -0.1656 -0.6008
vn 0.2328 -0.7128 -0.6616
vn 0.5396 -0.0881 -0.8373
vn 0.5397 -0.0881 -0.8372
usemtl Default_OBJ.003
s off
f 1/1/1 2/2/1 3/3/1 4/4/1 5/5/1 6/6/1 7/7/1 8/8/1 9/9/1 10/10/1 11/11/1 12/12/1 13/13/1 14/14/1 15/15/1 16/16/1 17/17/1 18/18/1
f 19/19/2 20/20/2 21/21/2 22/22/2 23/23/2 24/24/2 25/25/2 26/26/2 27/27/2 28/28/2 29/29/2 30/30/2 31/31/2 32/32/2 33/33/2 34/34/2 35/35/2 36/36/2
s 1
f 37/37/3 2/38/4 1/39/5 38/40/6
f 38/40/6 1/39/5 18/41/7 39/42/8
f 39/42/8 18/41/7 17/43/9 40/44/10
f 40/44/10 17/43/9 16/45/11 41/46/12
f 41/46/12 16/45/11 15/47/13 42/48/14
f 42/48/14 15/47/13 14/49/15 43/50/16
f 43/50/16 14/49/15 13/51/17 44/52/18
f 44/52/18 13/51/17 12/53/19 45/54/20
f 45/54/20 12/53/19 11/55/21 46/56/22
f 46/56/22 11/55/21 10/57/23 47/58/24
f 47/58/24 10/57/23 9/59/25 48/60/26
f 48/60/26 9/59/25 8/61/27 49/62/28
f 49/62/28 8/61/27 7/63/29 50/64/30
f 50/64/30 7/63/29 6/65/31 51/66/32
f 51/66/32 6/65/31 5/67/33 52/68/34
f 52/68/34 5/67/33 4/69/35 53/70/36
f 53/70/36 4/69/35 3/71/37 54/72/38
f 54/72/38 3/71/37 2/73/4 37/74/3
f 36/75/39 55/76/38 56/77/40 19/78/41
f 55/76/38 57/79/38 58/80/40 56/77/40
f 57/79/38 59/81/38 60/82/3 58/80/40
f 59/81/38 61/83/38 62/84/3 60/82/3
f 61/83/38 63/85/38 64/86/40 62/84/3
f 63/85/38 65/87/38 66/88/40 64/86/40
f 65/87/38 67/89/38 68/90/40 66/88/40
f 67/89/38 69/91/38 70/92/3 68/90/40
f 69/91/38 54/72/38 37/74/3 70/92/3
f 35/93/42 71/94/43 55/76/38 36/75/39
f 71/94/43 72/95/36 57/79/38 55/76/38
f 72/95/36 73/96/36 59/81/38 57/79/38
f 73/96/36 74/97/36 61/83/38 59/81/38
f 74/97/36 75/98/36 63/85/38 61/83/38
f 75/98/36 76/99/43 65/87/38 63/85/38
f 76/99/43 77/100/43 67/89/38 65/87/38
f 77/100/43 78/101/36 69/91/38 67/89/38
f 78/101/36 53/70/36 54/72/38 69/91/38
f 34/102/44 79/103/34 71/94/43 35/93/42
f 79/103/34 80/104/34 72/95/36 71/94/43
f 80/104/34 81/105/34 73/96/36 72/95/36
f 81/105/34 82/106/34 74/97/36 73/96/36
f 82/106/34 83/107/34 75/98/36 74/97/36
f 83/107/34 84/108/34 76/99/43 75/98/36
f 84/108/34 85/109/34 77/100/43 76/99/43
f 85/109/34 86/110/34 78/101/36 77/100/43
f 86/110/34 52/68/34 53/70/36 78/101/36
f 33/111/45 87/112/46 79/103/34 34/102/44
f 87/112/46 88/113/32 80/104/34 79/103/34
f 88/113/32 89/114/32 81/105/34 80/104/34
f 89/114/32 90/115/32 82/106/34 81/105/34
f 90/115/32 91/116/32 83/107/34 82/106/34
f 91/116/32 92/117/32 84/108/34 83/107/34
f 92/117/32 93/118/46 85/109/34 84/108/34
f 93/118/46 94/119/46 86/110/34 85/109/34
f 94/119/46 51/66/32 52/68/34 86/110/34
f 32/120/47 95/121/48 87/112/46 33/111/45
f 95/121/48 96/122/48 88/113/32 87/112/46
f 96/122/48 97/123/48 89/114/32 88/113/32
f 97/123/48 98/124/48 90/115/32 89/114/32
f 98/124/48 99/125/48 91/116/32 90/115/32
f 99/125/48 100/126/48 92/117/32 91/116/32
f 100/126/48 101/127/48 93/118/46 92/117/32
f 101/127/48 102/128/30 94/119/46 93/118/46
f 102/128/30 50/64/30 51/66/32 94/119/46
f 31/129/49 103/130/28 95/121/48 32/120/47
f 103/130/28 104/131/28 96/122/48 95/121/48
f 104/131/28 105/132/50 97/123/48 96/122/48
f 105/132/50 106/133/51 98/124/48 97/123/48
f 106/133/51 107/134/50 99/125/48 98/124/48
f 107/134/50 108/135/28 100/126/48 99/125/48
f 108/135/28 109/136/28 101/127/48 100/126/48
f 109/136/28 110/137/28 102/128/30 101/127/48
f 110/137/28 49/62/28 50/64/30 102/128/30
f 30/138/52 111/139/26 103/130/28 31/129/49
f 111/139/26 112/140/26 104/131/28 103/130/28
f 112/140/26 113/141/26 105/132/50 104/131/28
f 113/141/26 114/142/26 106/133/51 105/132/50
f 114/142/26 115/143/26 107/134/50 106/133/51
f 115/143/26 116/144/26 108/135/28 107/134/50
f 116/144/26 117/145/26 109/136/28 108/135/28
f 117/145/26 118/146/26 110/137/28 109/136/28
f 118/146/26 48/60/26 49/62/28 110/137/28
f 29/147/53 119/148/54 111/139/26 30/138/52
f 119/148/54 120/149/24 112/140/26 111/139/26
f 120/149/24 121/150/24 113/141/26 112/140/26
f 121/150/24 122/151/24 114/142/26 113/141/26
f 122/151/24 123/152/24 115/143/26 114/142/26
f 123/152/24 124/153/54 116/144/26 115/143/26
f 124/153/54 125/154/54 117/145/26 116/144/26
f 125/154/54 126/155/24 118/146/26 117/145/26
f 126/155/24 47/58/24 48/60/26 118/146/26
f 28/156/55 127/157/56 119/148/54 29/147/53
f 127/157/56 128/158/22 120/149/24 119/148/54
f 128/158/22 129/159/22 121/150/24 120/149/24
f 129/159/22 130/160/22 122/151/24 121/150/24
f 130/160/22 131/161/56 123/152/24 122/151/24
f 131/161/56 132/162/56 124/153/54 123/152/24
f 132/162/56 133/163/56 125/154/54 124/153/54
f 133/163/56 134/164/22 126/155/24 125/154/54
f 134/164/22 46/56/22 47/58/24 126/155/24
f 27/165/57 135/166/20 127/157/56 28/156/55
f 135/166/20 136/167/20 128/158/22 127/157/56
f 136/167/20 137/168/20 129/159/22 128/158/22
f 137/168/20 138/169/20 130/160/22 129/159/22
f 138/169/20 139/170/58 131/161/56 130/160/22
f 139/170/58 140/171/58 132/162/56 131/161/56
f 140/171/58 141/172/20 133/163/56 132/162/56
f 141/172/20 142/173/20 134/164/22 133/163/56
f 142/173/20 45/54/20 46/56/22 134/164/22
f 26/174/59 143/175/18 135/166/20 27/165/57
f 143/175/18 144/176/18 136/167/20 135/166/20
f 144/176/18 145/177/60 137/168/20 136/167/20
f 145/177/60 146/178/60 138/169/20 137/168/20
f 146/178/60 147/179/60 139/170/58 138/169/20
f 147/179/60 148/180/18 140/171/58 139/170/58
f 148/180/18 149/181/18 141/172/20 140/171/58
f 149/181/18 150/182/60 142/173/20 141/172/20
f 150/182/60 44/52/18 45/54/20 142/173/20
f 25/183/61 151/184/16 143/175/18 26/174/59
f 151/184/16 152/185/16 144/176/18 143/175/18
f 152/185/16 153/186/16 145/177/60 144/176/18
f 153/186/16 154/187/62 146/178/60 145/177/60
f 154/187/62 155/188/16 147/179/60 146/178/60
f 155/188/16 156/189/16 148/180/18 147/179/60
f 156/189/16 157/190/16 149/181/18 148/180/18
f 157/190/16 158/191/16 150/182/60 149/181/18
f 158/191/16 43/50/16 44/52/18 150/182/60
f 24/192/63 159/193/14 151/184/16 25/183/61
f 159/193/14 160/194/14 152/185/16 151/184/16
f 160/194/14 161/195/14 153/186/16 152/185/16
f 161/195/14 162/196/64 154/187/62 153/186/16
f 162/196/64 163/197/64 155/188/16 154/187/62
f 163/197/64 164/198/64 156/189/16 155/188/16
f 164/198/64 165/199/64 157/190/16 156/189/16
f 165/199/64 166/200/14 158/191/16 157/190/16
f 166/200/14 42/48/14 43/50/16 158/191/16
f 23/201/65 167/202/66 159/193/14 24/192/63
f 167/202/66 168/203/12 160/194/14 159/193/14
f 168/203/12 169/204/12 161/195/14 160/194/14
f 169/204/12 170/205/12 162/196/64 161/195/14
f 170/205/12 171/206/66 163/197/64 162/196/64
f 171/206/66 172/207/66 164/198/64 163/197/64
f 172/207/66 173/208/66 165/199/64 164/198/64
f 173/208/66 174/209/66 166/200/14 165/199/64
f 174/209/66 41/46/12 42/48/14 166/200/14
f 22/210/67 175/211/68 167/202/66 23/201/65
f 175/211/68 176/212/68 168/203/12 167/202/66
f 176/212/68 177/213/68 169/204/12 168/203/12
f 177/213/68 178/214/69 170/205/12 169/204/12
f 178/214/69 179/215/69 171/206/66 170/205/12
f 179/215/69 180/216/69 172/207/66 171/206/66
f 180/216/69 181/217/69 173/208/66 172/207/66
f 181/217/69 182/218/68 174/209/66 173/208/66
f 182/218/68 40/44/10 41/46/12 174/209/66
f 21/219/70 183/220/71 175/211/68 22/210/67
f 183/220/71 184/221/71 176/212/68 175/211/68
f 184/221/71 185/222/8 177/213/68 176/212/68
f 185/222/8 186/223/72 178/214/69 177/213/68
f 186/223/72 187/224/72 179/215/69 178/214/69
f 187/224/72 188/225/8 180/216/69 179/215/69
f 188/225/8 189/226/71 181/217/69 180/216/69
f 189/226/71 190/227/71 182/218/68 181/217/69
f 190/227/71 39/42/8 40/44/10 182/218/68
f 20/228/73 191/229/6 183/220/71 21/219/70
f 191/229/6 192/230/74 184/221/71 183/220/71
f 192/230/74 193/231/6 185/222/8 184/221/71
f 193/231/6 194/232/6 186/223/72 185/222/8
f 194/232/6 195/233/75 187/224/72 186/223/72
f 195/233/75 196/234/75 188/225/8 187/224/72
f 196/234/75 197/235/6 189/226/71 188/225/8
f 197/235/6 198/236/6 190/227/71 189/226/71
f 198/236/6 38/40/6 39/42/8 190/227/71
f 19/237/41 56/238/40 191/229/6 20/228/73
f 56/238/40 58/239/40 192/230/74 191/229/6
f 58/239/40 60/240/3 193/231/6 192/230/74
f 60/240/3 62/241/3 194/232/6 193/231/6
f 62/241/3 64/242/40 195/233/75 194/232/6
f 64/242/40 66/243/40 196/234/75 195/233/75
f 66/243/40 68/244/40 197/235/6 196/234/75
f 68/244/40 70/245/3 198/236/6 197/235/6
f 70/245/3 37/37/3 38/40/6 198/236/6
