# Blender v2.80 (sub 75) OBJ File: ''
# www.blender.org
o Cylinder
v -0.053761 0.439112 0.019290
v -0.053761 1.179769 0.019290
v -0.048143 0.439112 0.020280
v -0.048143 1.179769 0.020280
v -0.043203 0.439112 0.023132
v -0.043203 1.179769 0.023132
v -0.039536 0.439112 0.027502
v -0.039536 1.179769 0.027502
v -0.037585 0.439112 0.032863
v -0.037585 1.179769 0.032863
v -0.037585 0.439112 0.038568
v -0.037585 1.179769 0.038568
v -0.039536 0.439112 0.043928
v -0.039536 1.179769 0.043928
v -0.043203 0.439112 0.048298
v -0.043203 1.179769 0.048298
v -0.048143 0.439112 0.051150
v -0.048143 1.179769 0.051150
v -0.053761 0.439112 0.052141
v -0.053761 1.179769 0.052141
v -0.059379 0.439112 0.051150
v -0.059379 1.179769 0.051150
v -0.064319 0.439112 0.048298
v -0.064319 1.179769 0.048298
v -0.067986 0.439112 0.043928
v -0.067986 1.179769 0.043928
v -0.069937 0.439112 0.038568
v -0.069937 1.179769 0.038568
v -0.069937 0.439112 0.032863
v -0.069937 1.179769 0.032863
v -0.067986 0.439112 0.027502
v -0.067986 1.179769 0.027502
v -0.064319 0.439112 0.023132
v -0.064319 1.179769 0.023132
v -0.059379 0.439112 0.020280
v -0.059379 1.179769 0.020280
v -0.053761 0.513178 0.019290
v -0.053761 0.587243 0.019290
v -0.053761 0.661309 0.019290
v -0.053761 0.735375 0.019290
v -0.053761 0.809440 0.019290
v -0.053761 0.883506 0.019290
v -0.053761 0.957572 0.019290
v -0.053761 1.031638 0.019290
v -0.053761 1.105703 0.019290
v -0.048143 1.105703 0.020280
v -0.048143 1.031638 0.020280
v -0.048143 0.957572 0.020280
v -0.048143 0.883506 0.020280
v -0.048143 0.809440 0.020280
v -0.048143 0.735375 0.020280
v -0.048143 0.661309 0.020280
v -0.048143 0.587243 0.020280
v -0.048143 0.513178 0.020280
v -0.043203 1.105703 0.023132
v -0.043203 1.031638 0.023132
v -0.043203 0.957572 0.023132
v -0.043203 0.883506 0.023132
v -0.043203 0.809440 0.023132
v -0.043203 0.735375 0.023132
v -0.043203 0.661309 0.023132
v -0.043203 0.587243 0.023132
v -0.043203 0.513178 0.023132
v -0.039536 1.105703 0.027502
v -0.039536 1.031638 0.027502
v -0.039536 0.957572 0.027502
v -0.039536 0.883506 0.027502
v -0.039536 0.809440 0.027502
v -0.039536 0.735375 0.027502
v -0.039536 0.661309 0.027502
v -0.039536 0.587243 0.027502
v -0.039536 0.513178 0.027502
v -0.037585 1.105703 0.032863
v -0.037585 1.031638 0.032863
v -0.037585 0.957572 0.032863
v -0.037585 0.883506 0.032863
v -0.037585 0.809440 0.032863
v -0.037585 0.735375 0.032863
v -0.037585 0.661309 0.032863
v -0.037585 0.587243 0.032863
v -0.037585 0.513178 0.032863
v -0.037585 1.105703 0.038568
v -0.037585 1.031638 0.038568
v -0.037585 0.957572 0.038568
v -0.037585 0.883506 0.038568
v -0.037585 0.809440 0.038568
v -0.037585 0.735375 0.038568
v -0.037585 0.661309 0.038568
v -0.037585 0.587243 0.038568
v -0.037585 0.513178 0.038568
v -0.039536 1.105703 0.043928
v -0.039536 1.031638 0.043928
v -0.039536 0.957572 0.043928
v -0.039536 0.883506 0.043928
v -0.039536 0.809440 0.043928
v -0.039536 0.735375 0.043928
v -0.039536 0.661309 0.043928
v -0.039536 0.587243 0.043928
v -0.039536 0.513178 0.043928
v -0.043203 1.105703 0.048298
v -0.043203 1.031638 0.048298
v -0.043203 0.957572 0.048298
v -0.043203 0.883506 0.048298
v -0.043203 0.809440 0.048298
v -0.043203 0.735375 0.048298
v -0.043203 0.661309 0.048298
v -0.043203 0.587243 0.048298
v -0.043203 0.513178 0.048298
v -0.048143 1.105703 0.051150
v -0.048143 1.031638 0.051150
v -0.048143 0.957572 0.051150
v -0.048143 0.883506 0.051150
v -0.048143 0.809440 0.051150
v -0.048143 0.735375 0.051150
v -0.048143 0.661309 0.051150
v -0.048143 0.587243 0.051150
v -0.048143 0.513178 0.051150
v -0.053761 1.105703 0.052141
v -0.053761 1.031638 0.052141
v -0.053761 0.957572 0.052141
v -0.053761 0.883506 0.052141
v -0.053761 0.809440 0.052141
v -0.053761 0.735375 0.052141
v -0.053761 0.661309 0.052141
v -0.053761 0.587243 0.052141
v -0.053761 0.513178 0.052141
v -0.059379 1.105703 0.051150
v -0.059379 1.031638 0.051150
v -0.059379 0.957572 0.051150
v -0.059379 0.883506 0.051150
v -0.059379 0.809440 0.051150
v -0.059379 0.735375 0.051150
v -0.059379 0.661309 0.051150
v -0.059379 0.587243 0.051150
v -0.059379 0.513178 0.051150
v -0.064319 1.105703 0.048298
v -0.064319 1.031638 0.048298
v -0.064319 0.957572 0.048298
v -0.064319 0.883506 0.048298
v -0.064319 0.809440 0.048298
v -0.064319 0.735375 0.048298
v -0.064319 0.661309 0.048298
v -0.064319 0.587243 0.048298
v -0.064319 0.513178 0.048298
v -0.067986 1.105703 0.043928
v -0.067986 1.031638 0.043928
v -0.067986 0.957572 0.043928
v -0.067986 0.883506 0.043928
v -0.067986 0.809440 0.043928
v -0.067986 0.735375 0.043928
v -0.067986 0.661309 0.043928
v -0.067986 0.587243 0.043928
v -0.067986 0.513178 0.043928
v -0.069937 1.105703 0.038568
v -0.069937 1.031638 0.038568
v -0.069937 0.957572 0.038568
v -0.069937 0.883506 0.038568
v -0.069937 0.809440 0.038568
v -0.069937 0.735375 0.038568
v -0.069937 0.661309 0.038568
v -0.069937 0.587243 0.038568
v -0.069937 0.513178 0.038568
v -0.069937 1.105703 0.032863
v -0.069937 1.031638 0.032863
v -0.069937 0.957572 0.032863
v -0.069937 0.883506 0.032863
v -0.069937 0.809440 0.032863
v -0.069937 0.735375 0.032863
v -0.069937 0.661309 0.032863
v -0.069937 0.587243 0.032863
v -0.069937 0.513178 0.032863
v -0.067986 1.105703 0.027502
v -0.067986 1.031638 0.027502
v -0.067986 0.957572 0.027502
v -0.067986 0.883506 0.027502
v -0.067986 0.809440 0.027502
v -0.067986 0.735375 0.027502
v -0.067986 0.661309 0.027502
v -0.067986 0.587243 0.027502
v -0.067986 0.513178 0.027502
v -0.064319 1.105703 0.023132
v -0.064319 1.031638 0.023132
v -0.064319 0.957572 0.023132
v -0.064319 0.883506 0.023132
v -0.064319 0.809440 0.023132
v -0.064319 0.735375 0.023132
v -0.064319 0.661309 0.023132
v -0.064319 0.587243 0.023132
v -0.064319 0.513178 0.023132
v -0.059379 1.105703 0.020280
v -0.059379 1.031638 0.020280
v -0.059379 0.957572 0.020280
v -0.059379 0.883506 0.020280
v -0.059379 0.809440 0.020280
v -0.059379 0.735375 0.020280
v -0.059379 0.661309 0.020280
v -0.059379 0.587243 0.020280
v -0.059379 0.513178 0.020280
vt 0.332085 0.475526
vt 0.250000 0.490000
vt 0.167915 0.475526
vt 0.095731 0.433851
vt 0.042154 0.370000
vt 0.013646 0.291675
vt 0.013646 0.208324
vt 0.042154 0.130000
vt 0.095731 0.066149
vt 0.167915 0.024474
vt 0.250000 0.010000
vt 0.332085 0.024474
vt 0.404269 0.066149
vt 0.457846 0.130000
vt 0.486354 0.208324
vt 0.486354 0.291676
vt 0.457846 0.370000
vt 0.404269 0.433851
vt 0.750000 0.490000
vt 0.832085 0.475526
vt 0.904269 0.433851
vt 0.957846 0.370000
vt 0.986354 0.291676
vt 0.986354 0.208324
vt 0.957846 0.130000
vt 0.904269 0.066149
vt 0.832085 0.024474
vt 0.750000 0.010000
vt 0.667915 0.024474
vt 0.595731 0.066149
vt 0.542154 0.130000
vt 0.513646 0.208324
vt 0.513646 0.291675
vt 0.542154 0.370000
vt 0.595731 0.433851
vt 0.667915 0.475526
vt 1.000000 0.950000
vt 1.000000 1.000000
vt 0.944444 1.000000
vt 0.944444 0.950000
vt 0.888889 1.000000
vt 0.888889 0.950000
vt 0.833333 1.000000
vt 0.833333 0.950000
vt 0.777778 1.000000
vt 0.777778 0.950000
vt 0.722222 1.000000
vt 0.722222 0.950000
vt 0.666667 1.000000
vt 0.666667 0.950000
vt 0.611111 1.000000
vt 0.611111 0.950000
vt 0.555555 1.000000
vt 0.555555 0.950000
vt 0.500000 1.000000
vt 0.500000 0.950000
vt 0.444444 1.000000
vt 0.444444 0.950000
vt 0.388889 1.000000
vt 0.388889 0.950000
vt 0.333333 1.000000
vt 0.333333 0.950000
vt 0.277778 1.000000
vt 0.277778 0.950000
vt 0.222222 1.000000
vt 0.222222 0.950000
vt 0.166666 1.000000
vt 0.166666 0.950000
vt 0.111111 1.000000
vt 0.111111 0.950000
vt 0.055555 1.000000
vt 0.055555 0.950000
vt -0.000000 1.000000
vt -0.000000 0.950000
vt 0.055555 0.500000
vt 0.055555 0.550000
vt -0.000000 0.550000
vt -0.000000 0.500000
vt 0.055555 0.600000
vt -0.000000 0.600000
vt 0.055555 0.650000
vt -0.000000 0.650000
vt 0.055555 0.700000
vt -0.000000 0.700000
vt 0.055555 0.750000
vt -0.000000 0.750000
vt 0.055555 0.800000
vt -0.000000 0.800000
vt 0.055555 0.850000
vt -0.000000 0.850000
vt 0.055555 0.900000
vt -0.000000 0.900000
vt 0.111111 0.500000
vt 0.111111 0.550000
vt 0.111111 0.600000
vt 0.111111 0.650000
vt 0.111111 0.700000
vt 0.111111 0.750000
vt 0.111111 0.800000
vt 0.111111 0.850000
vt 0.111111 0.900000
vt 0.166666 0.500000
vt 0.166666 0.550000
vt 0.166666 0.600000
vt 0.166666 0.650000
vt 0.166666 0.700000
vt 0.166666 0.750000
vt 0.166666 0.800000
vt 0.166666 0.850000
vt 0.166666 0.900000
vt 0.222222 0.500000
vt 0.222222 0.550000
vt 0.222222 0.600000
vt 0.222222 0.650000
vt 0.222222 0.700000
vt 0.222222 0.750000
vt 0.222222 0.800000
vt 0.222222 0.850000
vt 0.222222 0.900000
vt 0.277778 0.500000
vt 0.277778 0.550000
vt 0.277778 0.600000
vt 0.277778 0.650000
vt 0.277778 0.700000
vt 0.277778 0.750000
vt 0.277778 0.800000
vt 0.277778 0.850000
vt 0.277778 0.900000
vt 0.333333 0.500000
vt 0.333333 0.550000
vt 0.333333 0.600000
vt 0.333333 0.650000
vt 0.333333 0.700000
vt 0.333333 0.750000
vt 0.333333 0.800000
vt 0.333333 0.850000
vt 0.333333 0.900000
vt 0.388889 0.500000
vt 0.388889 0.550000
vt 0.388889 0.600000
vt 0.388889 0.650000
vt 0.388889 0.700000
vt 0.388889 0.750000
vt 0.388889 0.800000
vt 0.388889 0.850000
vt 0.388889 0.900000
vt 0.444444 0.500000
vt 0.444444 0.550000
vt 0.444444 0.600000
vt 0.444444 0.650000
vt 0.444444 0.700000
vt 0.444444 0.750000
vt 0.444444 0.800000
vt 0.444444 0.850000
vt 0.444444 0.900000
vt 0.500000 0.500000
vt 0.500000 0.550000
vt 0.500000 0.600000
vt 0.500000 0.650000
vt 0.500000 0.700000
vt 0.500000 0.750000
vt 0.500000 0.800000
vt 0.500000 0.850000
vt 0.500000 0.900000
vt 0.555555 0.500000
vt 0.555555 0.550000
vt 0.555555 0.600000
vt 0.555555 0.650000
vt 0.555555 0.700000
vt 0.555555 0.750000
vt 0.555555 0.800000
vt 0.555555 0.850000
vt 0.555555 0.900000
vt 0.611111 0.500000
vt 0.611111 0.550000
vt 0.611111 0.600000
vt 0.611111 0.650000
vt 0.611111 0.700000
vt 0.611111 0.750000
vt 0.611111 0.800000
vt 0.611111 0.850000
vt 0.611111 0.900000
vt 0.666667 0.500000
vt 0.666667 0.550000
vt 0.666667 0.600000
vt 0.666667 0.650000
vt 0.666667 0.700000
vt 0.666667 0.750000
vt 0.666667 0.800000
vt 0.666667 0.850000
vt 0.666667 0.900000
vt 0.722222 0.500000
vt 0.722222 0.550000
vt 0.722222 0.600000
vt 0.722222 0.650000
vt 0.722222 0.700000
vt 0.722222 0.750000
vt 0.722222 0.800000
vt 0.722222 0.850000
vt 0.722222 0.900000
vt 0.777778 0.500000
vt 0.777778 0.550000
vt 0.777778 0.600000
vt 0.777778 0.650000
vt 0.777778 0.700000
vt 0.777778 0.750000
vt 0.777778 0.800000
vt 0.777778 0.850000
vt 0.777778 0.900000
vt 0.833333 0.500000
vt 0.833333 0.550000
vt 0.833333 0.600000
vt 0.833333 0.650000
vt 0.833333 0.700000
vt 0.833333 0.750000
vt 0.833333 0.800000
vt 0.833333 0.850000
vt 0.833333 0.900000
vt 0.888889 0.500000
vt 0.888889 0.550000
vt 0.888889 0.600000
vt 0.888889 0.650000
vt 0.888889 0.700000
vt 0.888889 0.750000
vt 0.888889 0.800000
vt 0.888889 0.850000
vt 0.888889 0.900000
vt 0.944444 0.500000
vt 0.944444 0.550000
vt 0.944444 0.600000
vt 0.944444 0.650000
vt 0.944444 0.700000
vt 0.944445 0.750000
vt 0.944444 0.800000
vt 0.944444 0.850000
vt 0.944444 0.900000
vt 1.000000 0.500000
vt 1.000000 0.550000
vt 1.000000 0.600000
vt 1.000000 0.650000
vt 1.000000 0.700000
vt 1.000000 0.750000
vt 1.000000 0.800000
vt 1.000000 0.850000
vt 1.000000 0.900000
vn 0.0000 1.0000 0.0000
vn 0.0000 -1.0000 0.0000
vn 0.0000 0.0000 -1.0000
vn 0.0000 0.6700 -0.7423
vn 0.2539 0.6700 -0.6976
vn 0.3420 0.0000 -0.9397
vn 0.4772 0.6700 -0.5687
vn 0.6428 0.0000 -0.7660
vn 0.6429 0.6700 -0.3712
vn 0.8660 0.0000 -0.5000
vn 0.7310 0.6700 -0.1289
vn 0.9848 0.0000 -0.1736
vn 0.7310 0.6700 0.1289
vn 0.9848 0.0000 0.1736
vn 0.6429 0.6700 0.3712
vn 0.8660 0.0000 0.5000
vn 0.4772 0.6700 0.5687
vn 0.6428 0.0000 0.7660
vn 0.2539 0.6700 0.6976
vn 0.3420 0.0000 0.9397
vn 0.0000 0.6700 0.7423
vn 0.0000 0.0000 1.0000
vn -0.2539 0.6700 0.6976
vn -0.3420 0.0000 0.9397
vn -0.4772 0.6700 0.5687
vn -0.6428 0.0000 0.7660
vn -0.6429 0.6700 0.3712
vn -0.8660 0.0000 0.5000
vn -0.7310 0.6700 0.1289
vn -0.9848 0.0000 0.1736
vn -0.7310 0.6700 -0.1289
vn -0.9848 0.0000 -0.1736
vn -0.6429 0.6700 -0.3711
vn -0.8660 0.0000 -0.5000
vn -0.4772 0.6700 -0.5687
vn -0.6428 0.0000 -0.7660
vn -0.2539 0.6700 -0.6976
vn -0.3420 0.0000 -0.9397
vn -0.2539 -0.6700 -0.6976
vn 0.0000 -0.6700 -0.7423
vn -0.4772 -0.6700 -0.5687
vn -0.6429 -0.6700 -0.3712
vn -0.7310 -0.6700 -0.1289
vn -0.7310 -0.6700 0.1289
vn -0.6429 -0.6700 0.3712
vn -0.4772 -0.6700 0.5687
vn -0.2539 -0.6700 0.6976
vn 0.0000 -0.6700 0.7423
vn 0.2539 -0.6700 0.6976
vn 0.4772 -0.6700 0.5687
vn 0.6429 -0.6700 0.3712
vn 0.7310 -0.6700 0.1289
vn 0.7310 -0.6700 -0.1289
vn 0.6429 -0.6700 -0.3712
vn 0.4772 -0.6700 -0.5687
vn 0.2539 -0.6700 -0.6976
s off
f 4/1/1 2/2/1 36/3/1 34/4/1 32/5/1 30/6/1 28/7/1 26/8/1 24/9/1 22/10/1 20/11/1 18/12/1 16/13/1 14/14/1 12/15/1 10/16/1 8/17/1 6/18/1
f 1/19/2 3/20/2 5/21/2 7/22/2 9/23/2 11/24/2 13/25/2 15/26/2 17/27/2 19/28/2 21/29/2 23/30/2 25/31/2 27/32/2 29/33/2 31/34/2 33/35/2 35/36/2
s 1
f 45/37/3 2/38/4 4/39/5 46/40/6
f 46/40/6 4/39/5 6/41/7 55/42/8
f 55/42/8 6/41/7 8/43/9 64/44/10
f 64/44/10 8/43/9 10/45/11 73/46/12
f 73/46/12 10/45/11 12/47/13 82/48/14
f 82/48/14 12/47/13 14/49/15 91/50/16
f 91/50/16 14/49/15 16/51/17 100/52/18
f 100/52/18 16/51/17 18/53/19 109/54/20
f 109/54/20 18/53/19 20/55/21 118/56/22
f 118/56/22 20/55/21 22/57/23 127/58/24
f 127/58/24 22/57/23 24/59/25 136/60/26
f 136/60/26 24/59/25 26/61/27 145/62/28
f 145/62/28 26/61/27 28/63/29 154/64/30
f 154/64/30 28/63/29 30/65/31 163/66/32
f 163/66/32 30/65/31 32/67/33 172/68/34
f 172/68/34 32/67/33 34/69/35 181/70/36
f 181/70/36 34/69/35 36/71/37 190/72/38
f 190/72/38 36/71/37 2/73/4 45/74/3
f 35/75/39 198/76/38 37/77/3 1/78/40
f 198/76/38 197/79/38 38/80/3 37/77/3
f 197/79/38 196/81/38 39/82/3 38/80/3
f 196/81/38 195/83/38 40/84/3 39/82/3
f 195/83/38 194/85/38 41/86/3 40/84/3
f 194/85/38 193/87/38 42/88/3 41/86/3
f 193/87/38 192/89/38 43/90/3 42/88/3
f 192/89/38 191/91/38 44/92/3 43/90/3
f 191/91/38 190/72/38 45/74/3 44/92/3
f 33/93/41 189/94/36 198/76/38 35/75/39
f 189/94/36 188/95/36 197/79/38 198/76/38
f 188/95/36 187/96/36 196/81/38 197/79/38
f 187/96/36 186/97/36 195/83/38 196/81/38
f 186/97/36 185/98/36 194/85/38 195/83/38
f 185/98/36 184/99/36 193/87/38 194/85/38
f 184/99/36 183/100/36 192/89/38 193/87/38
f 183/100/36 182/101/36 191/91/38 192/89/38
f 182/101/36 181/70/36 190/72/38 191/91/38
f 31/102/42 180/103/34 189/94/36 33/93/41
f 180/103/34 179/104/34 188/95/36 189/94/36
f 179/104/34 178/105/34 187/96/36 188/95/36
f 178/105/34 177/106/34 186/97/36 187/96/36
f 177/106/34 176/107/34 185/98/36 186/97/36
f 176/107/34 175/108/34 184/99/36 185/98/36
f 175/108/34 174/109/34 183/100/36 184/99/36
f 174/109/34 173/110/34 182/101/36 183/100/36
f 173/110/34 172/68/34 181/70/36 182/101/36
f 29/111/43 171/112/32 180/103/34 31/102/42
f 171/112/32 170/113/32 179/104/34 180/103/34
f 170/113/32 169/114/32 178/105/34 179/104/34
f 169/114/32 168/115/32 177/106/34 178/105/34
f 168/115/32 167/116/32 176/107/34 177/106/34
f 167/116/32 166/117/32 175/108/34 176/107/34
f 166/117/32 165/118/32 174/109/34 175/108/34
f 165/118/32 164/119/32 173/110/34 174/109/34
f 164/119/32 163/66/32 172/68/34 173/110/34
f 27/120/44 162/121/30 171/112/32 29/111/43
f 162/121/30 161/122/30 170/113/32 171/112/32
f 161/122/30 160/123/30 169/114/32 170/113/32
f 160/123/30 159/124/30 168/115/32 169/114/32
f 159/124/30 158/125/30 167/116/32 168/115/32
f 158/125/30 157/126/30 166/117/32 167/116/32
f 157/126/30 156/127/30 165/118/32 166/117/32
f 156/127/30 155/128/30 164/119/32 165/118/32
f 155/128/30 154/64/30 163/66/32 164/119/32
f 25/129/45 153/130/28 162/121/30 27/120/44
f 153/130/28 152/131/28 161/122/30 162/121/30
f 152/131/28 151/132/28 160/123/30 161/122/30
f 151/132/28 150/133/28 159/124/30 160/123/30
f 150/133/28 149/134/28 158/125/30 159/124/30
f 149/134/28 148/135/28 157/126/30 158/125/30
f 148/135/28 147/136/28 156/127/30 157/126/30
f 147/136/28 146/137/28 155/128/30 156/127/30
f 146/137/28 145/62/28 154/64/30 155/128/30
f 23/138/46 144/139/26 153/130/28 25/129/45
f 144/139/26 143/140/26 152/131/28 153/130/28
f 143/140/26 142/141/26 151/132/28 152/131/28
f 142/141/26 141/142/26 150/133/28 151/132/28
f 141/142/26 140/143/26 149/134/28 150/133/28
f 140/143/26 139/144/26 148/135/28 149/134/28
f 139/144/26 138/145/26 147/136/28 148/135/28
f 138/145/26 137/146/26 146/137/28 147/136/28
f 137/146/26 136/60/26 145/62/28 146/137/28
f 21/147/47 135/148/24 144/139/26 23/138/46
f 135/148/24 134/149/24 143/140/26 144/139/26
f 134/149/24 133/150/24 142/141/26 143/140/26
f 133/150/24 132/151/24 141/142/26 142/141/26
f 132/151/24 131/152/24 140/143/26 141/142/26
f 131/152/24 130/153/24 139/144/26 140/143/26
f 130/153/24 129/154/24 138/145/26 139/144/26
f 129/154/24 128/155/24 137/146/26 138/145/26
f 128/155/24 127/58/24 136/60/26 137/146/26
f 19/156/48 126/157/22 135/148/24 21/147/47
f 126/157/22 125/158/22 134/149/24 135/148/24
f 125/158/22 124/159/22 133/150/24 134/149/24
f 124/159/22 123/160/22 132/151/24 133/150/24
f 123/160/22 122/161/22 131/152/24 132/151/24
f 122/161/22 121/162/22 130/153/24 131/152/24
f 121/162/22 120/163/22 129/154/24 130/153/24
f 120/163/22 119/164/22 128/155/24 129/154/24
f 119/164/22 118/56/22 127/58/24 128/155/24
f 17/165/49 117/166/20 126/157/22 19/156/48
f 117/166/20 116/167/20 125/158/22 126/157/22
f 116/167/20 115/168/20 124/159/22 125/158/22
f 115/168/20 114/169/20 123/160/22 124/159/22
f 114/169/20 113/170/20 122/161/22 123/160/22
f 113/170/20 112/171/20 121/162/22 122/161/22
f 112/171/20 111/172/20 120/163/22 121/162/22
f 111/172/20 110/173/20 119/164/22 120/163/22
f 110/173/20 109/54/20 118/56/22 119/164/22
f 15/174/50 108/175/18 117/166/20 17/165/49
f 108/175/18 107/176/18 116/167/20 117/166/20
f 107/176/18 106/177/18 115/168/20 116/167/20
f 106/177/18 105/178/18 114/169/20 115/168/20
f 105/178/18 104/179/18 113/170/20 114/169/20
f 104/179/18 103/180/18 112/171/20 113/170/20
f 103/180/18 102/181/18 111/172/20 112/171/20
f 102/181/18 101/182/18 110/173/20 111/172/20
f 101/182/18 100/52/18 109/54/20 110/173/20
f 13/183/51 99/184/16 108/175/18 15/174/50
f 99/184/16 98/185/16 107/176/18 108/175/18
f 98/185/16 97/186/16 106/177/18 107/176/18
f 97/186/16 96/187/16 105/178/18 106/177/18
f 96/187/16 95/188/16 104/179/18 105/178/18
f 95/188/16 94/189/16 103/180/18 104/179/18
f 94/189/16 93/190/16 102/181/18 103/180/18
f 93/190/16 92/191/16 101/182/18 102/181/18
f 92/191/16 91/50/16 100/52/18 101/182/18
f 11/192/52 90/193/14 99/184/16 13/183/51
f 90/193/14 89/194/14 98/185/16 99/184/16
f 89/194/14 88/195/14 97/186/16 98/185/16
f 88/195/14 87/196/14 96/187/16 97/186/16
f 87/196/14 86/197/14 95/188/16 96/187/16
f 86/197/14 85/198/14 94/189/16 95/188/16
f 85/198/14 84/199/14 93/190/16 94/189/16
f 84/199/14 83/200/14 92/191/16 93/190/16
f 83/200/14 82/48/14 91/50/16 92/191/16
f 9/201/53 81/202/12 90/193/14 11/192/52
f 81/202/12 80/203/12 89/194/14 90/193/14
f 80/203/12 79/204/12 88/195/14 89/194/14
f 79/204/12 78/205/12 87/196/14 88/195/14
f 78/205/12 77/206/12 86/197/14 87/196/14
f 77/206/12 76/207/12 85/198/14 86/197/14
f 76/207/12 75/208/12 84/199/14 85/198/14
f 75/208/12 74/209/12 83/200/14 84/199/14
f 74/209/12 73/46/12 82/48/14 83/200/14
f 7/210/54 72/211/10 81/202/12 9/201/53
f 72/211/10 71/212/10 80/203/12 81/202/12
f 71/212/10 70/213/10 79/204/12 80/203/12
f 70/213/10 69/214/10 78/205/12 79/204/12
f 69/214/10 68/215/10 77/206/12 78/205/12
f 68/215/10 67/216/10 76/207/12 77/206/12
f 67/216/10 66/217/10 75/208/12 76/207/12
f 66/217/10 65/218/10 74/209/12 75/208/12
f 65/218/10 64/44/10 73/46/12 74/209/12
f 5/219/55 63/220/8 72/211/10 7/210/54
f 63/220/8 62/221/8 71/212/10 72/211/10
f 62/221/8 61/222/8 70/213/10 71/212/10
f 61/222/8 60/223/8 69/214/10 70/213/10
f 60/223/8 59/224/8 68/215/10 69/214/10
f 59/224/8 58/225/8 67/216/10 68/215/10
f 58/225/8 57/226/8 66/217/10 67/216/10
f 57/226/8 56/227/8 65/218/10 66/217/10
f 56/227/8 55/42/8 64/44/10 65/218/10
f 3/228/56 54/229/6 63/220/8 5/219/55
f 54/229/6 53/230/6 62/221/8 63/220/8
f 53/230/6 52/231/6 61/222/8 62/221/8
f 52/231/6 51/232/6 60/223/8 61/222/8
f 51/232/6 50/233/6 59/224/8 60/223/8
f 50/233/6 49/234/6 58/225/8 59/224/8
f 49/234/6 48/235/6 57/226/8 58/225/8
f 48/235/6 47/236/6 56/227/8 57/226/8
f 47/236/6 46/40/6 55/42/8 56/227/8
f 1/237/40 37/238/3 54/229/6 3/228/56
f 37/238/3 38/239/3 53/230/6 54/229/6
f 38/239/3 39/240/3 52/231/6 53/230/6
f 39/240/3 40/241/3 51/232/6 52/231/6
f 40/241/3 41/242/3 50/233/6 51/232/6
f 41/242/3 42/243/3 49/234/6 50/233/6
f 42/243/3 43/244/3 48/235/6 49/234/6
f 43/244/3 44/245/3 47/236/6 48/235/6
f 44/245/3 45/37/3 46/40/6 47/236/6
