# Blender v2.79 (sub 0) OBJ File: ''
# www.blender.org
mtllib jar_beans_obj.mtl
o skJarBeansmesh
v -0.132510 1.299026 -0.229513
v -0.265019 1.299026 0.000000
v -0.132510 1.299026 0.229513
v 0.132509 1.299026 0.229513
v 0.132509 1.299026 -0.229513
v 0.265019 1.299026 -0.000000
v -0.132875 1.182760 0.230145
v -0.265750 1.182760 0.000000
v -0.372413 1.004389 0.000000
v -0.186206 1.004389 0.322519
v 0.183599 0.132760 0.318003
v -0.183599 0.132760 0.318003
v -0.134462 -0.006228 0.232895
v 0.134462 -0.006228 0.232895
v 0.186206 1.004389 0.322519
v 0.132874 1.182760 0.230145
v 0.268923 -0.006228 0.000000
v 0.367199 0.132760 0.000000
v 0.372413 1.004389 -0.000000
v 0.265749 1.182760 -0.000000
v 0.134462 -0.006228 -0.232894
v 0.183599 0.132760 -0.318003
v -0.367199 0.132760 0.000000
v 0.186206 1.004389 -0.322518
v 0.132874 1.182760 -0.230146
v -0.268923 -0.006228 -0.000000
v -0.183599 0.132760 -0.318003
v -0.134461 -0.006228 -0.232895
v -0.186206 1.004389 -0.322518
v -0.132875 1.182760 -0.230146
vt 0.902340 -0.628910
vt 0.882810 -0.781250
vt 0.902340 -0.960940
vt 0.968750 -0.960940
vt 0.968750 -0.628910
vt 0.988280 -0.781250
vt 0.566410 -0.136720
vt 0.425780 -0.136720
vt 0.425780 -0.273440
vt 0.566410 -0.273440
vt 0.566410 -0.015630
vt 0.425780 -0.015630
vt 0.714840 -0.843750
vt 0.566410 -0.843750
vt 0.566410 -0.953130
vt 0.714840 -0.953130
vt 0.714840 -0.273440
vt 0.714840 -0.136720
vt 0.714840 -0.015630
vt 0.890630 -0.406250
vt 0.890630 -0.519530
vt 0.984380 -0.519530
vt 0.863280 -0.843750
vt 0.863280 -0.953130
vt 0.863280 -0.273440
vt 0.863280 -0.136720
vt 0.859380 -0.015630
vt 0.890630 -0.289060
vt 0.144530 -0.843750
vt 0.007810 -0.843750
vt 0.007810 -0.953130
vt 0.425780 -0.839840
vt 0.140630 -0.273440
vt 0.003910 -0.273440
vt 0.144530 -0.136720
vt 0.007810 -0.136720
vt 0.140630 -0.015630
vt 0.007810 -0.015630
vt 0.984380 -0.406250
vt 0.277340 -0.843750
vt 0.144530 -0.953130
vt 0.281250 -0.953130
vt 0.281250 -0.273440
vt 0.281250 -0.136720
vt 0.277340 -0.015630
vt 0.984380 -0.289060
vt 0.425780 -0.843750
vt 0.425780 -0.953130
vn 0.0000 1.0000 0.0000
vn -0.7690 0.4599 0.4440
vn -0.8660 0.0054 0.5000
vn 0.0000 -0.5222 0.8528
vn 0.0000 -0.0052 1.0000
vn 0.0000 0.4599 0.8880
vn 0.0000 0.0054 1.0000
vn 0.0000 -1.0000 0.0000
vn 0.7386 -0.5222 0.4264
vn 0.8660 -0.0052 0.5000
vn 0.7690 0.4599 0.4440
vn 0.8660 0.0054 0.5000
vn 0.7386 -0.5222 -0.4264
vn -0.8660 -0.0052 0.5000
vn 0.8660 -0.0052 -0.5000
vn 0.7690 0.4599 -0.4440
vn 0.8660 0.0054 -0.5000
vn 0.0000 -0.5222 -0.8528
vn 0.0000 -0.0052 -1.0000
vn 0.0000 0.4599 -0.8880
vn 0.0000 0.0054 -1.0000
vn -0.7386 -0.5222 -0.4264
vn -0.8660 -0.0052 -0.5000
vn -0.7690 0.4599 -0.4440
vn -0.8660 0.0054 -0.5000
vn -0.7386 -0.5222 0.4264
usemtl Mat.003
s off
f 1/1/1 2/2/1 3/3/1
f 4/4/1 5/5/1 3/3/1
f 6/6/1 5/5/1 4/4/1
f 3/3/1 5/5/1 1/1/1
f 7/7/2 8/8/2 9/9/2
f 10/10/2 7/7/2 9/9/2
f 3/11/3 2/12/3 8/8/3
f 7/7/3 3/11/3 8/8/3
f 11/13/4 12/14/4 13/15/4
f 14/16/4 11/13/4 13/15/4
f 15/17/5 10/10/5 12/14/5
f 11/13/5 15/17/5 12/14/5
f 16/18/6 7/7/6 10/10/6
f 15/17/6 16/18/6 10/10/6
f 4/19/7 3/11/7 7/7/7
f 16/18/7 4/19/7 7/7/7
f 17/20/8 14/21/8 13/22/8
f 18/23/9 11/13/9 14/16/9
f 17/24/9 18/23/9 14/16/9
f 19/25/10 15/17/10 11/13/10
f 18/23/10 19/25/10 11/13/10
f 20/26/11 16/18/11 15/17/11
f 19/25/11 20/26/11 15/17/11
f 6/27/12 4/19/12 16/18/12
f 20/26/12 6/27/12 16/18/12
f 21/28/8 17/20/8 13/22/8
f 22/29/13 18/30/13 17/31/13
f 12/14/14 10/10/14 23/32/14
f 24/33/15 19/34/15 18/30/15
f 22/29/15 24/33/15 18/30/15
f 25/35/16 20/36/16 19/34/16
f 24/33/16 25/35/16 19/34/16
f 5/37/17 6/38/17 20/36/17
f 25/35/17 5/37/17 20/36/17
f 26/39/8 21/28/8 13/22/8
f 27/40/18 22/29/18 21/41/18
f 28/42/18 27/40/18 21/41/18
f 29/43/19 24/33/19 22/29/19
f 27/40/19 29/43/19 22/29/19
f 30/44/20 25/35/20 24/33/20
f 29/43/20 30/44/20 24/33/20
f 1/45/21 5/37/21 25/35/21
f 30/44/21 1/45/21 25/35/21
f 26/39/8 28/46/8 21/28/8
f 23/47/22 27/40/22 28/42/22
f 26/48/22 23/47/22 28/42/22
f 9/9/23 29/43/23 27/40/23
f 23/47/23 9/9/23 27/40/23
f 8/8/24 30/44/24 29/43/24
f 9/9/24 8/8/24 29/43/24
f 2/12/25 1/45/25 30/44/25
f 8/8/25 2/12/25 30/44/25
f 10/10/14 9/9/14 23/32/14
f 13/15/26 12/14/26 26/48/26
f 21/41/13 22/29/13 17/31/13
f 12/14/26 23/32/26 26/48/26
