# Blender v2.79 (sub 0) OBJ File: ''
# www.blender.org
mtllib chest_obj.mtl
o skbronzechestTex0
v -1.190274 -0.148198 1.535483
v -1.190274 1.133544 1.535483
v -1.190274 1.133589 -1.558258
v -1.187849 1.636253 1.535483
v -1.190274 1.133544 1.535483
v -1.187848 1.636253 -1.558257
v -1.190274 1.133544 1.535483
v -1.187849 1.636253 1.535483
v -1.187848 1.636253 -1.558257
v -1.190274 1.133589 -1.558258
v -1.190274 1.133589 -1.558258
v -1.190274 -0.148197 -1.558258
v -1.190274 1.133589 -1.558258
v -1.190274 -0.148197 1.535483
v -1.190274 -0.148197 -1.558258
v -1.190274 1.133544 1.535483
v 1.191953 1.636251 1.535484
v 0.727892 2.056520 1.535483
v 1.191953 1.636252 -1.558258
v 0.727892 2.056520 1.535483
v 1.191953 1.636252 -1.558258
v 0.727892 2.056520 -1.558259
v 0.727892 2.056520 -1.558259
v 1.191953 1.636251 1.535484
v -1.190274 -0.148197 1.535483
v 1.191003 -0.148197 1.535483
v -1.190274 -0.148197 -1.558258
v 1.191003 -0.148197 -1.558258
v -0.723787 2.056522 1.535483
v 0.002053 2.257250 -1.558258
v -0.723786 2.056520 -1.558257
v 0.002052 2.257251 1.535483
v 0.002053 2.257251 1.535483
v -0.723787 2.056522 1.535483
v 0.002053 2.257250 -1.558258
v -0.723786 2.056520 -1.558257
v 1.191003 -0.148198 1.535483
v -1.190274 -0.148197 -1.558258
v 1.191003 -0.148197 -1.558258
v -1.190274 -0.148198 1.535483
v 1.191003 -0.148197 1.535483
v 1.191004 1.133803 1.535483
v 1.191003 -0.148197 -1.558258
v 1.191004 1.133803 1.535483
v 1.191953 1.636251 1.535484
v 1.191004 1.133803 -1.558258
v 1.191004 1.133803 -1.558258
v 1.191004 1.133803 1.535483
v 1.191003 -0.148198 1.535483
v 1.191003 -0.148197 -1.558258
v 1.191004 1.133803 1.535483
v 1.191004 1.133803 -1.558258
v -1.187848 1.636253 -1.558257
v 1.191953 1.636252 -1.558258
v 1.191004 1.133803 -1.558258
v 0.727892 2.056520 -1.558259
v 1.191953 1.636252 -1.558258
v -1.187848 1.636253 -1.558257
v -0.723786 2.056520 -1.558257
v 0.002053 2.257250 -1.558258
v 1.191004 1.133803 -1.558258
v -1.190274 1.133589 -1.558258
v 0.002052 2.257251 1.535483
v -0.723787 2.056522 1.535483
v 0.727892 2.056520 1.535483
v -1.187849 1.636253 1.535483
v 1.191953 1.636251 1.535484
v -1.190274 1.133544 1.535483
v 1.191004 1.133803 1.535483
v 1.191004 1.133803 1.535483
v 1.191003 -0.148197 1.535483
v -1.190274 1.133589 -1.558258
v -1.190274 -0.148197 -1.558258
v 1.191004 1.133803 1.535483
v -1.190274 -0.148198 1.535483
v 1.191003 -0.148198 1.535483
v -1.190274 1.133589 -1.558258
v 1.191004 1.133803 -1.558258
v -1.190274 -0.148197 -1.558258
v -1.190274 1.133544 1.535483
v -1.190274 1.133544 1.535483
v 1.191953 1.636251 1.535484
v 1.191004 1.133803 1.535483
v -1.187849 1.636253 1.535483
v 0.727892 2.056520 1.535483
v -0.723787 2.056522 1.535483
v 0.002053 2.257251 1.535483
v -1.190274 1.133589 -1.558258
v 1.191953 1.636252 -1.558258
v -1.187848 1.636253 -1.558257
v 0.727892 2.056520 -1.558259
v -0.723786 2.056520 -1.558257
v 0.002053 2.257250 -1.558258
v 1.191004 1.133803 -1.558258
v 1.191003 -0.148197 -1.558258
vt 0.501961 0.011765
vt 0.501961 0.219608
vt 0.007843 0.219608
vt 0.933333 0.592157
vt 0.933333 0.505882
vt 0.603922 0.592157
vt 0.501961 0.219608
vt 0.501961 0.301961
vt 0.007843 0.301961
vt 0.007843 0.219608
vt 0.603922 0.505882
vt 0.007843 0.011765
vt 0.588235 0.992157
vt 0.952941 0.780392
vt 0.588235 0.780392
vt 0.952941 0.992157
vt 0.933333 0.929412
vt 0.933333 0.850980
vt 0.607843 0.929412
vt 0.501961 0.607843
vt 0.007843 0.698039
vt 0.007843 0.607843
vt 0.607843 0.850980
vt 0.501961 0.698039
vt 0.968627 0.505882
vt 0.576471 0.505882
vt 0.968627 0.996078
vt 0.576471 0.996078
vt 0.501961 0.392157
vt 0.007843 0.498039
vt 0.007843 0.392157
vt 0.501961 0.498039
vt 0.933333 0.760784
vt 0.933333 0.670588
vt 0.607843 0.760784
vt 0.607843 0.670588
vt 0.576471 0.505882
vt 0.968627 0.996078
vt 0.576471 0.996078
vt 0.968627 0.505882
vt 0.952941 0.780392
vt 0.952941 0.992157
vt 0.588235 0.780392
vt 0.933333 0.996078
vt 0.933333 0.925490
vt 0.607843 0.996078
vt 0.588235 0.992157
vt 0.501961 0.780392
vt 0.501961 0.992157
vt 0.007843 0.992157
vt 0.501961 0.780392
vt 0.007843 0.780392
vt 0.607843 0.592157
vt 0.607843 0.925490
vt 0.007843 0.780392
vt 0.615686 0.450980
vt 0.525490 0.368627
vt 0.988235 0.368627
vt 0.898039 0.450980
vt 0.756863 0.490196
vt 0.525490 0.266667
vt 0.988235 0.266667
vt 0.756863 0.490196
vt 0.898039 0.450980
vt 0.615686 0.450980
vt 0.988235 0.368627
vt 0.525490 0.368627
vt 0.988235 0.266667
vt 0.525490 0.270588
vt 0.588235 0.996078
vt 0.588235 0.780392
vt 0.952941 0.992157
vt 0.952941 0.780392
vt 0.525490 0.270588
vt 0.988235 0.011765
vt 0.525490 0.011765
vt 0.988235 0.266667
vt 0.525490 0.266667
vt 0.988235 0.011765
vt 0.988235 0.266667
vt 0.894118 0.501961
vt 0.619608 0.564706
vt 0.619608 0.505882
vt 0.894118 0.564706
vt 0.674510 0.611765
vt 0.843137 0.611765
vt 0.756863 0.635294
vt 0.894118 0.501961
vt 0.619608 0.564706
vt 0.894118 0.564706
vt 0.674510 0.611765
vt 0.843137 0.611765
vt 0.756863 0.635294
vt 0.619608 0.501961
vt 0.525490 0.011765
vn -1.0000 -0.0000 -0.0000
vn 0.8442 -0.5360 0.0000
vn 1.0000 -0.0048 0.0000
vn -1.0000 0.0048 -0.0000
vn -0.8442 0.5360 -0.0000
vn -0.9627 0.2706 -0.0000
vn 1.0000 -0.0000 0.0000
vn 0.7071 0.0000 -0.7071
vn -0.6713 -0.7412 -0.0000
vn -0.5495 -0.8355 -0.0000
vn 0.5495 0.8355 0.0000
vn 0.8453 0.5342 -0.0000
vn 0.4113 0.9115 0.0000
vn -0.4113 -0.9115 0.0000
vn 0.9639 0.2661 -0.0000
vn -0.0000 1.0000 0.0000
vn -0.4113 0.9115 -0.0000
vn -0.0918 0.9958 -0.0000
vn -0.5495 0.8355 -0.0000
vn 0.0918 0.9958 -0.0000
vn -0.0918 -0.9958 0.0000
vn 0.4113 -0.9115 0.0000
vn 0.0918 -0.9958 0.0000
vn 0.5495 -0.8355 0.0000
vn 0.0000 -1.0000 -0.0000
vn -0.8944 -0.0001 0.4472
vn -1.0000 0.0019 0.0000
vn -0.4472 0.0002 0.8944
vn 1.0000 -0.0019 -0.0000
vn 0.6713 -0.7412 0.0000
vn -0.0000 -0.0000 -1.0000
vn -0.0000 -0.0000 1.0000
usemtl skbronzechestTex0
s 1
f 1/1/1 2/2/1 3/3/1
f 4/4/2 5/5/3 6/6/3
f 7/7/4 8/8/5 9/9/6
f 10/10/4 7/7/4 9/9/6
f 5/5/3 11/11/3 6/6/3
f 1/1/1 3/3/1 12/12/1
f 13/13/7 14/14/8 15/15/7
f 16/16/8 14/14/8 13/13/7
f 17/17/9 18/18/10 19/19/9
f 20/20/11 21/21/12 22/22/13
f 19/19/9 18/18/10 23/23/14
f 20/20/11 24/24/15 21/21/12
f 25/25/16 26/26/16 27/27/16
f 27/27/16 26/26/16 28/28/16
f 29/29/17 30/30/18 31/31/19
f 29/29/17 32/32/20 30/30/18
f 33/33/21 34/34/22 35/35/23
f 35/35/23 34/34/22 36/36/24
f 37/37/25 38/38/25 39/39/25
f 37/37/25 40/40/25 38/38/25
f 41/41/1 42/42/1 43/43/26
f 8/8/5 29/29/17 31/31/19
f 18/18/10 33/33/21 23/23/14
f 44/44/27 45/45/27 46/46/27
f 23/23/14 33/33/21 35/35/23
f 32/32/20 20/20/11 22/22/13
f 32/32/20 22/22/13 30/30/18
f 42/42/1 47/47/28 43/43/26
f 48/48/7 49/49/7 50/50/7
f 24/24/15 51/51/29 52/52/29
f 36/36/24 4/4/2 53/53/30
f 34/34/22 4/4/2 36/36/24
f 46/46/27 45/45/27 54/54/27
f 55/55/7 48/48/7 50/50/7
f 24/24/15 52/52/29 21/21/12
f 8/8/5 31/31/19 9/9/6
f 56/56/31 57/57/31 58/58/31
f 56/56/31 58/58/31 59/59/31
f 60/60/31 56/56/31 59/59/31
f 57/57/31 61/61/31 62/62/31
f 57/57/31 62/62/31 58/58/31
f 63/63/32 64/64/32 65/65/32
f 65/65/32 64/64/32 66/66/32
f 67/67/32 66/66/32 68/68/32
f 67/67/32 68/68/32 69/69/32
f 14/14/8 70/70/31 71/71/31
f 47/47/28 72/72/32 73/73/32
f 16/16/8 70/70/31 14/14/8
f 43/43/26 47/47/28 73/73/32
f 74/74/32 75/75/32 76/76/32
f 77/77/31 78/78/31 79/79/31
f 74/74/32 80/80/32 75/75/32
f 81/81/31 82/82/31 83/83/31
f 84/84/31 82/82/31 81/81/31
f 84/84/31 85/85/31 82/82/31
f 86/86/31 85/85/31 84/84/31
f 86/86/31 87/87/31 85/85/31
f 88/88/32 89/89/32 90/90/32
f 89/89/32 91/91/32 90/90/32
f 90/90/32 91/91/32 92/92/32
f 91/91/32 93/93/32 92/92/32
f 94/94/32 89/89/32 88/88/32
f 78/78/31 95/95/31 79/79/31
f 65/65/32 66/66/32 67/67/32
